<svg width="23" height="24" viewBox="0 0 23 24" fill="none" xmlns="http://www.w3.org/2000/svg">
<path opacity="0.2" fill-rule="evenodd" clip-rule="evenodd" d="M11.2961 24C17.5348 24 20.7096 13.8 15.0615 9.6C9.41345 5.4 18.79 0 12.5513 0C6.31258 0 0 7.23532 0 13.2C0 19.1647 5.05745 24 11.2961 24Z" fill="#22A45D"/>
<path fill-rule="evenodd" clip-rule="evenodd" d="M21.3334 14C21.3334 18.6023 17.6025 22.3333 13.0001 22.3333C8.39771 22.3333 4.66675 18.6023 4.66675 14C4.66675 9.39759 8.39771 5.66663 13.0001 5.66663C17.6025 5.66663 21.3334 9.39759 21.3334 14ZM13.0511 7.74996C12.678 7.74996 12.3755 8.05243 12.3755 8.42555V9.32209C12.3248 9.33314 12.2741 9.34495 12.2235 9.35753C11.8042 9.46169 11.4276 9.62627 11.0939 9.85128C10.7601 10.0763 10.4906 10.3638 10.2852 10.7138C10.0798 11.0638 9.97713 11.4846 9.97713 11.9763C9.97713 12.3763 10.0435 12.7159 10.1761 12.995C10.3087 13.2742 10.4842 13.5117 10.7024 13.7075C10.9206 13.9034 11.1688 14.0638 11.4469 14.1888C11.725 14.3138 12.0095 14.4221 12.3005 14.5138C12.6 14.6054 12.8674 14.6909 13.1028 14.77C13.3381 14.8492 13.5349 14.9367 13.6932 15.0325C13.8516 15.1284 13.9735 15.2346 14.0591 15.3513C14.1447 15.4679 14.1874 15.6096 14.1874 15.7763C14.1874 15.9513 14.1532 16.1013 14.0848 16.2263C14.0163 16.3513 13.9243 16.4513 13.8088 16.5263C13.6932 16.6013 13.5585 16.6554 13.4044 16.6888C13.2504 16.7221 13.0921 16.7388 12.9295 16.7388C12.5701 16.7388 12.2085 16.6492 11.8448 16.47C11.4811 16.2909 11.188 16.0679 10.9655 15.8013L9.52786 17.2263C9.93007 17.6346 10.435 17.9492 11.0425 18.17C11.476 18.3276 11.9203 18.4289 12.3755 18.4741V19.5744C12.3755 19.9475 12.678 20.25 13.0511 20.25C13.4242 20.25 13.7267 19.9475 13.7267 19.5744V18.4366C13.8951 18.4088 14.0615 18.372 14.2259 18.3263C14.6453 18.2096 15.0175 18.0304 15.3427 17.7888C15.6679 17.5471 15.9268 17.2409 16.1193 16.87C16.3119 16.4992 16.4081 16.0596 16.4081 15.5513C16.4081 15.1096 16.3183 14.7409 16.1386 14.445C15.9589 14.1492 15.7321 13.9013 15.4582 13.7013C15.1844 13.5013 14.8806 13.3409 14.5469 13.22C14.2131 13.0992 13.8922 12.9888 13.5841 12.8888C13.3702 12.8221 13.1777 12.7575 13.0065 12.695C12.8353 12.6325 12.6877 12.5638 12.5636 12.4888C12.4396 12.4138 12.3454 12.3263 12.2812 12.2263C12.2171 12.1263 12.185 12.0013 12.185 11.8513C12.185 11.6763 12.2256 11.5325 12.3069 11.42C12.3882 11.3075 12.4888 11.2159 12.6086 11.145C12.7284 11.0742 12.8632 11.0263 13.0129 11.0013C13.1627 10.9763 13.3103 10.9638 13.4558 10.9638C13.7382 10.9638 14.0313 11.0325 14.3351 11.17C14.6389 11.3075 14.8849 11.4929 15.0731 11.7263L16.4723 10.2888C16.0701 9.93044 15.6016 9.65961 15.0667 9.47628C14.6123 9.32052 14.1656 9.23092 13.7267 9.2075V8.42555C13.7267 8.05243 13.4242 7.74996 13.0511 7.74996Z" fill="#22A45D"/>
</svg>
